<svg width="77" height="36" viewBox="0 0 77 36" fill="none" xmlns="http://www.w3.org/2000/svg">
<path d="M0 18C0 27.9411 8 35.5 18 35.5C21 35.5 24.5 35 29.9062 31.5C30 27.5 29.9062 18 29.9062 18H26V28.8762C26 30 22.2644 31.5016 17.4078 31.5016C9.3988 31.5016 2.90621 26.009 2.90621 18C2.90621 9.99098 9.3988 3.49839 17.4078 3.49839C21.0856 3.49839 24.4436 4.86747 27 7.12379L29.9062 4.5C26.7331 1.69936 22.565 0 18 0C8.05887 0 0 8.05887 0 18Z" fill="#004AAD"/>
<path d="M39.9138 17.9872C38.6922 17.9872 37.6354 17.7031 36.7433 17.1349C35.8513 16.5611 35.1609 15.7685 34.6723 14.7571C34.1894 13.7401 33.9479 12.5696 33.9479 11.2457C33.9479 9.92755 34.1894 8.7571 34.6723 7.73437C35.1609 6.70596 35.8342 5.90199 36.6922 5.32244C37.5558 4.73721 38.553 4.4446 39.6837 4.4446C40.3939 4.4446 41.0786 4.57528 41.7376 4.83664C42.3967 5.09233 42.9876 5.48721 43.5104 6.0213C44.0388 6.54971 44.4564 7.21733 44.7632 8.02415C45.07 8.82528 45.2234 9.77415 45.2234 10.8707V11.6207H34.9962V10.2827H43.6723C43.6723 9.44176 43.5019 8.68608 43.1609 8.01562C42.8257 7.33949 42.357 6.8054 41.7547 6.41335C41.1581 6.0213 40.4678 5.82528 39.6837 5.82528C38.8541 5.82528 38.124 6.04687 37.4933 6.49005C36.8626 6.93324 36.3683 7.51846 36.0104 8.24574C35.6581 8.97301 35.4791 9.76846 35.4734 10.6321V11.4332C35.4734 12.473 35.6524 13.3821 36.0104 14.1605C36.374 14.9332 36.8882 15.5327 37.553 15.9588C38.2178 16.3849 39.0047 16.598 39.9138 16.598C40.5331 16.598 41.0757 16.5014 41.5416 16.3082C42.0132 16.1151 42.4081 15.8565 42.7263 15.5327C43.0501 15.2031 43.2945 14.8423 43.4592 14.4503L44.8996 14.919C44.7007 15.4702 44.374 15.9787 43.9195 16.4446C43.4706 16.9105 42.9081 17.2855 42.232 17.5696C41.5615 17.848 40.7888 17.9872 39.9138 17.9872Z" fill="#004AAD"/>
<path d="M53.7227 4.62358V5.9446H47.4756V4.62358H53.7227ZM49.4273 1.48721H50.9528V14.2969C50.9528 14.8423 51.0466 15.2713 51.2341 15.5838C51.4216 15.8906 51.6659 16.1094 51.9671 16.2401C52.2682 16.3651 52.5892 16.4276 52.9301 16.4276C53.129 16.4276 53.2994 16.4162 53.4415 16.3935C53.5835 16.3651 53.7085 16.3366 53.8165 16.3082L54.1403 17.6804C53.9926 17.7372 53.8108 17.7884 53.5949 17.8338C53.379 17.8849 53.1119 17.9105 52.7938 17.9105C52.2369 17.9105 51.7 17.7883 51.183 17.544C50.6716 17.2997 50.2511 16.9361 49.9216 16.4531C49.5921 15.9702 49.4273 15.3707 49.4273 14.6548V1.48721Z" fill="#004AAD"/>
<path d="M33.9479 33.7145V20.6236H35.4223V22.6349H35.5331C35.7945 21.9759 36.249 21.4446 36.8967 21.0412C37.5501 20.6321 38.2888 20.4276 39.1126 20.4276C39.2376 20.4276 39.3769 20.4304 39.5303 20.4361C39.6837 20.4418 39.8115 20.4474 39.9138 20.4531V21.9957C39.8456 21.9844 39.7263 21.9673 39.5558 21.9446C39.3854 21.9219 39.2007 21.9105 39.0019 21.9105C38.32 21.9105 37.7121 22.0554 37.178 22.3452C36.6496 22.6293 36.232 23.0242 35.9251 23.5298C35.6183 24.0355 35.4649 24.6122 35.4649 25.2599V33.7145H33.9479Z" fill="#004AAD"/>
<path d="M46.6388 34.0128C45.849 34.0128 45.1274 33.8594 44.474 33.5526C43.8206 33.2401 43.3007 32.7912 42.9144 32.206C42.528 31.6151 42.3348 30.8992 42.3348 30.0582C42.3348 29.4105 42.457 28.8651 42.7013 28.4219C42.9456 27.9787 43.2922 27.6151 43.7411 27.331C44.1899 27.0469 44.7212 26.8224 45.3348 26.6577C45.9485 26.4929 46.6246 26.3651 47.3632 26.2742C48.0962 26.1832 48.7155 26.1037 49.2212 26.0355C49.7326 25.9673 50.1218 25.8594 50.3888 25.7117C50.6559 25.5639 50.7894 25.3253 50.7894 24.9957V24.6889C50.7894 23.7969 50.5223 23.0952 49.9882 22.5838C49.4598 22.0668 48.6985 21.8082 47.7042 21.8082C46.761 21.8082 45.9911 22.0156 45.3945 22.4304C44.8036 22.8452 44.3888 23.3338 44.1502 23.8963L42.7098 23.3764C43.0053 22.6605 43.4144 22.0895 43.9371 21.6634C44.4598 21.2315 45.0451 20.9219 45.6928 20.7344C46.3405 20.5412 46.9968 20.4446 47.6615 20.4446C48.1615 20.4446 48.6814 20.5099 49.2212 20.6406C49.7667 20.7713 50.2723 20.9986 50.7382 21.3224C51.2042 21.6406 51.582 22.0867 51.8718 22.6605C52.1615 23.2287 52.3064 23.9503 52.3064 24.8253V33.7145H50.7894V31.6435H50.6956C50.5138 32.0298 50.2439 32.4048 49.886 32.7685C49.528 33.1321 49.0792 33.4304 48.5394 33.6634C47.9996 33.8963 47.3661 34.0128 46.6388 34.0128ZM46.8434 32.6236C47.6502 32.6236 48.349 32.4446 48.9399 32.0867C49.5309 31.7287 49.9854 31.2543 50.3036 30.6634C50.6275 30.0668 50.7894 29.4105 50.7894 28.6946V26.8026C50.6757 26.9105 50.4854 27.0071 50.2184 27.0923C49.957 27.1776 49.653 27.2543 49.3064 27.3224C48.9655 27.3849 48.6246 27.4389 48.2837 27.4844C47.9428 27.5298 47.636 27.5696 47.3632 27.6037C46.6246 27.6946 45.9939 27.8367 45.4712 28.0298C44.9485 28.223 44.5479 28.4901 44.2695 28.831C43.9911 29.1662 43.8519 29.598 43.8519 30.1264C43.8519 30.9219 44.136 31.5384 44.7042 31.9759C45.2723 32.4077 45.9854 32.6236 46.8434 32.6236Z" fill="#004AAD"/>
<path d="M58.339 25.5327V33.7145H56.8219V20.6236H58.2964V22.6776H58.4327C58.7396 22.0071 59.2168 21.4702 59.8646 21.0668C60.518 20.6577 61.3248 20.4531 62.285 20.4531C63.1657 20.4531 63.9384 20.6378 64.6032 21.0071C65.2736 21.3707 65.7935 21.9077 66.1628 22.6179C66.5378 23.3281 66.7253 24.2003 66.7253 25.2344V33.7145H65.2083V25.3281C65.2083 24.2543 64.9072 23.4048 64.3049 22.7798C63.7083 22.1548 62.9072 21.8423 61.9015 21.8423C61.214 21.8423 60.6032 21.9901 60.0691 22.2855C59.535 22.581 59.1117 23.0071 58.7992 23.5639C58.4924 24.1151 58.339 24.7713 58.339 25.5327Z" fill="#004AAD"/>
<path d="M76.3566 20.6236V21.9446H70.1095V20.6236H76.3566ZM72.0612 17.4872H73.5867V30.2969C73.5867 30.8423 73.6805 31.2713 73.868 31.5838C74.0555 31.8906 74.2998 32.1094 74.6009 32.2401C74.9021 32.3651 75.2231 32.4276 75.564 32.4276C75.7629 32.4276 75.9333 32.4162 76.0754 32.3935C76.2174 32.3651 76.3424 32.3367 76.4504 32.3082L76.7742 33.6804C76.6265 33.7372 76.4447 33.7884 76.2288 33.8338C76.0129 33.8849 75.7458 33.9105 75.4276 33.9105C74.8708 33.9105 74.3339 33.7884 73.8169 33.544C73.3055 33.2997 72.885 32.9361 72.5555 32.4531C72.2259 31.9702 72.0612 31.3707 72.0612 30.6548V17.4872Z" fill="#004AAD"/>
</svg>
